<?xml version="1.0" encoding="UTF-8"?><svg id="Layer_1" xmlns="http://www.w3.org/2000/svg" xmlns:xlink="http://www.w3.org/1999/xlink" viewBox="0 0 2153.26 1368.24"><defs><clipPath id="clippath"><rect x="222.45" width="1677.2" height="1069.71" style="fill:none;"/></clipPath><linearGradient id="linear-gradient" x1="1035.94" y1="1066" x2="1035.94" y2="-302.24" gradientTransform="translate(0 1066) scale(1 -1)" gradientUnits="userSpaceOnUse"><stop offset="0" stop-color="#ffddf0"/><stop offset="1" stop-color="#ffa7c7"/></linearGradient><linearGradient id="linear-gradient-2" x1="1634.72" y1="-72.58" x2="1634.72" y2="380.41" gradientTransform="translate(0 1066) scale(1 -1)" gradientUnits="userSpaceOnUse"><stop offset="0" stop-color="#ff95b0"/><stop offset="1" stop-color="#fff"/></linearGradient><linearGradient id="linear-gradient-3" x1="955.15" y1="-126.81" x2="955.15" y2="427.71" gradientTransform="translate(-376 1066) scale(1 -1)" gradientUnits="userSpaceOnUse"><stop offset="0" stop-color="#ff95b0"/><stop offset="1" stop-color="#fff"/></linearGradient><linearGradient id="linear-gradient-4" x1="774.15" y1="-153.79" x2="774.15" y2="299.21" gradientTransform="translate(1884.92 1066) rotate(-180)" gradientUnits="userSpaceOnUse"><stop offset="0" stop-color="#ff95b0"/><stop offset="1" stop-color="#fff"/></linearGradient><linearGradient id="linear-gradient-5" x1="1156.79" y1="-270.07" x2="1156.79" y2="182.93" gradientTransform="translate(1884.92 1066) rotate(-180)" gradientUnits="userSpaceOnUse"><stop offset="0" stop-color="#ff95b0"/><stop offset="1" stop-color="#fff"/></linearGradient><linearGradient id="linear-gradient-6" x1="391.34" y1="-159.09" x2="391.34" y2="229.13" gradientTransform="translate(0 1066) scale(1 -1)" gradientUnits="userSpaceOnUse"><stop offset="0" stop-color="#ff95b0"/><stop offset="1" stop-color="#fff"/></linearGradient><linearGradient id="linear-gradient-7" x1="1440.35" y1="-301.32" x2="1440.35" y2="258.84" gradientTransform="translate(3028.92 1066) rotate(-180)" gradientUnits="userSpaceOnUse"><stop offset="0" stop-color="#ff95b0"/><stop offset="1" stop-color="#fff"/></linearGradient></defs><g style="clip-path:url(#clippath);"><rect x="103.45" width="1864.97" height="1368.24" style="fill:url(#linear-gradient);"/><path d="M2004.23,930.43c-8.19-83.98-85.07-149.81-178.74-149.81-19.14,0-37.57,2.76-54.86,7.84-36.02-61.4-104.52-102.88-183.12-102.88-87.32,0-162.19,51.17-193.88,124.01-2.49-.22-4.99-.35-7.53-.35-48.83,0-88.41,40.21-88.41,89.82,0,5.31.47,10.51,1.35,15.57-14.58,12.86-26.03,28.91-33.13,46.99-48.81,1.64-87.87,40.6-87.87,88.44s40.78,88.51,91.07,88.51c23.89,0,45.6-8.95,61.85-23.57,16.71,7.6,35.4,11.85,55.14,11.85,46.17,0,86.64-23.27,109.24-58.17,27.83,13.08,59.11,20.42,92.18,20.42,39.93,0,77.27-10.7,109.06-29.29,32.63,30.91,78.32,50.12,128.92,50.12,37.89,0,73.02-10.78,101.98-29.16,16.79,21.7,42.87,35.67,72.19,35.67,50.66,0,91.73-41.68,91.73-93.07s-38.62-90.53-87.15-92.95h-.01Z" style="fill:url(#linear-gradient-2);"/><path d="M986.38,938c-9.02-102.81-93.76-183.39-196.98-183.39-21.09,0-41.39,3.38-60.45,9.6-39.69-75.16-115.18-125.93-201.8-125.93-96.23,0-178.73,62.65-213.66,151.8-2.73-.26-5.51-.42-8.3-.42-53.81,0-97.43,49.22-97.43,109.95,0,6.51.53,12.86,1.49,19.06-16.07,15.75-28.69,35.39-36.5,57.52-53.79,2-96.84,49.69-96.84,108.27s44.94,108.36,100.36,108.36c26.33,0,50.26-10.95,68.16-28.85,18.41,9.29,39.02,14.5,60.76,14.5,50.88,0,95.48-28.48,120.38-71.21,30.66,16.01,65.14,25,101.58,25,44.01,0,85.15-13.1,120.18-35.86,35.95,37.83,86.32,61.35,142.07,61.35,41.75,0,80.46-13.19,112.39-35.69,18.51,26.57,47.25,43.67,79.54,43.67,55.83,0,101.09-51.01,101.09-113.94s-42.56-110.82-96.05-113.79h.03Z" style="fill:url(#linear-gradient-3);"/><path d="M741.25,1011.64c8.19-83.98,85.07-149.81,178.74-149.81,19.14,0,37.57,2.76,54.86,7.84,36.02-61.4,104.52-102.88,183.12-102.88,87.32,0,162.19,51.17,193.88,124.01,2.49-.22,4.99-.35,7.53-.35,48.83,0,88.41,40.21,88.41,89.82,0,5.31-.47,10.51-1.35,15.57,14.58,12.86,26.03,28.91,33.13,46.99,48.81,1.64,87.87,40.6,87.87,88.44s-40.78,88.51-91.07,88.51c-23.89,0-45.6-8.95-61.85-23.57-16.71,7.6-35.4,11.85-55.14,11.85-46.17,0-86.64-23.27-109.24-58.17-27.83,13.08-59.11,20.42-92.18,20.42-39.93,0-77.27-10.7-109.06-29.29-32.63,30.91-78.32,50.12-128.92,50.12-37.89,0-73.02-10.78-101.98-29.16-16.79,21.7-42.87,35.67-72.19,35.67-50.66,0-91.73-41.68-91.73-93.07s38.62-90.53,87.15-92.95h.01Z" style="fill:url(#linear-gradient-4);"/><path d="M358.61,1127.92c8.19-83.98,85.07-149.81,178.74-149.81,19.14,0,37.57,2.76,54.86,7.84,36.02-61.4,104.52-102.88,183.12-102.88,87.32,0,162.19,51.17,193.88,124.01,2.49-.22,4.99-.35,7.53-.35,48.83,0,88.41,40.21,88.41,89.82,0,5.31-.47,10.51-1.35,15.57,14.58,12.86,26.03,28.91,33.13,46.99,48.81,1.64,87.87,40.6,87.87,88.44s-40.78,88.51-91.07,88.51c-23.89,0-45.6-8.95-61.85-23.57-16.71,7.6-35.4,11.85-55.14,11.85-46.17,0-86.64-23.27-109.24-58.17-27.83,13.08-59.11,20.42-92.18,20.42-39.93,0-77.27-10.7-109.06-29.29-32.63,30.91-78.32,50.12-128.92,50.12-37.89,0-73.02-10.78-101.98-29.16-16.79,21.7-42.87,35.67-72.19,35.67-50.66,0-91.73-41.68-91.73-93.07s38.62-90.53,87.15-92.95h.01Z" style="fill:url(#linear-gradient-5);"/><path d="M708.01,1046.68c-7.01-71.97-72.9-128.38-153.18-128.38-16.39,0-32.19,2.36-47,6.73-30.87-52.61-89.56-88.15-156.92-88.15-74.83,0-138.98,43.86-166.14,106.28-2.13-.18-4.27-.3-6.46-.3-41.84,0-75.77,34.46-75.77,76.97,0,4.56.41,9.01,1.16,13.35-12.5,11.03-22.31,24.77-28.39,40.26-41.83,1.4-75.3,34.78-75.3,75.79s34.94,75.86,78.04,75.86c20.47,0,39.08-7.66,53-20.2,14.31,6.51,30.34,10.15,47.26,10.15,39.57,0,74.25-19.93,93.61-49.85,23.85,11.21,50.65,17.51,78.99,17.51,34.22,0,66.22-9.18,93.45-25.11,27.96,26.48,67.12,42.95,110.47,42.95,32.46,0,62.57-9.24,87.4-24.99,14.39,18.6,36.73,30.56,61.85,30.56,43.42,0,78.62-35.71,78.62-79.76s-33.09-77.58-74.69-79.66h.01Z" style="fill:url(#linear-gradient-6);"/><path d="M1120.68,1111.01c6.37-.95,11.36-6.19,12.45-12.91,15.9-98.14,108.11-173.43,219.5-173.43,20.09,0,39.55,2.45,58.04,7.05,5.84,1.45,11.94-1.09,15.33-6.34,45.8-70.95,127.6-118.21,220.91-118.21,104.34,0,194.29,59.09,235.61,144.32,2.58,5.33,7.73,8.6,13.37,8.6h.09c60.38,0,109.33,49.72,109.33,111.06,0,3.85-.21,7.65-.59,11.4-.51,4.99,1.31,9.9,4.79,13.3,13.18,12.89,23.99,28.01,31.7,44.71,2.23,4.83,6.7,8,11.73,8.54,56.41,5.96,100.33,52.37,100.33,108.78,0,60.45-50.42,109.46-112.62,109.46-26.58,0-50.99-8.96-70.25-23.93-4.03-3.13-9.25-3.8-13.93-1.96-18.65,7.34-39.07,11.4-60.51,11.4-52.83,0-99.61-24.63-128.44-62.5-4.08-5.35-10.88-7.39-16.92-4.88-31.77,13.3-66.83,20.69-103.7,20.69-45.86,0-88.94-11.41-126.33-31.45-5.15-2.76-11.36-2.03-15.83,1.84-39.73,34.32-93.24,55.37-152.11,55.37-42.61,0-82.42-11.03-116.21-30.12-5.72-3.23-12.73-2.11-17.31,2.75-20.64,21.83-49.66,35.44-81.83,35.44-62.65,0-113.44-51.53-113.44-115.09,0-57.85,42.06-105.72,96.86-113.86h-.04Z" style="fill:url(#linear-gradient-7);"/><rect id="_x3C_Slice_x3E_" x="212.55" y="88.56" width="1752.02" height="985.75" style="fill:none;"/></g></svg>